# xmcd
#
# Track frame offsets:
#	150
#	15259
#	29834
#	50348
#	68870
#	86435
#	103277
#	122046
#	140300
#	156440
#	170744
#	183746
#	202616
#	220688
#	238537
#	255147
#	272499
#	291821
#	305273
#
# Disc length: 4347 seconds
#
# Revision: 0
# Processed by: cddbd v1.4PL0 Copyright (c) Steve Scherf et al.
# Submitted via: dBpowerAMP V4.0
#
DISCID=0610f913
DTITLE=Alison Moyet - The Singles
DYEAR=1900
DGENRE=Blues
TTITLE0=The First Time Ever I Saw Your Face
TTITLE1=Only You
TTITLE2=Nobody's Diary
TTITLE3=Winter Kills
TTITLE4=Love Resurrection
TTITLE5=All Cried Out
TTITLE6=Invisible
TTITLE7=Is This Love
TTITLE8=Weak In The Presence Of Beauty
TTITLE9=Ordinary Girl
TTITLE10=Love Letters
TTITLE11=It Won't Be Long
TTITLE12=Wishing You Were Here
TTITLE13=This House
TTITLE14=Falling
TTITLE15=Whispering Your Name
TTITLE16=Getting Into Something
TTITLE17=Ode To Boy
TTITLE18=Solid Wood
EXTD=
EXTT0=
EXTT1=
EXTT2=
EXTT3=
EXTT4=
EXTT5=
EXTT6=
EXTT7=
EXTT8=
EXTT9=
EXTT10=
EXTT11=
EXTT12=
EXTT13=
EXTT14=
EXTT15=
EXTT16=
EXTT17=
EXTT18=
PLAYORDER=
